<svg xmlns="http://www.w3.org/2000/svg" xmlns:xlink="http://www.w3.org/1999/xlink" viewBox="0 0 472.66 116.26"><defs><style>.cls-1{fill:#b2a616;}.cls-2{fill:#1c0a33;}.cls-3{fill:#581b98;}.cls-4{fill:#6122b2;}.cls-5{fill:#381466;}.cls-6{fill:#faee1c;}.cls-7{clip-path:url(#clip-path);}.cls-8{isolation:isolate;}.cls-9{clip-path:url(#clip-path-2);}</style><clipPath id="clip-path"><path class="cls-1" d="M216.92,57.66V49.22c0-.32,0-.65.05-1v8.45C216.94,57,216.92,57.35,216.92,57.66Z"/></clipPath><clipPath id="clip-path-2"><path class="cls-1" d="M382.41,57.6V49.15c0-.29,0-.6,0-.92v8.45C382.43,57,382.41,57.3,382.41,57.6Z"/></clipPath></defs><title>AGREGAR</title><g id="Layer_2" data-name="Layer 2"><g id="Layer_1-2" data-name="Layer 1"><path class="cls-2" d="M467.2,94.57l-.62.51c-.2.16-.38.32-.59.48l-.46.35c-.72.53-1.47,1.06-2.28,1.58l-.5.3c-.63.39-1.29.78-2,1.16s-1.44.78-2.21,1.17l-.22.11c-1,.47-2,.94-3.06,1.4-.88.38-1.79.76-2.73,1.13q-2.87,1.11-6.08,2.12c-.94.3-1.91.6-2.9.89l-.52.14c-2.26.64-4.61,1.25-7.06,1.81-3.32.77-6.81,1.45-10.44,2.06q-1.79.3-3.63.57c-3.47.52-7.08,1-10.79,1.32-6.85.67-14.06,1.08-21.51,1.17-1.15,0-2.31,0-3.47,0H86.51c-1.18,0-2.36,0-3.53,0q-3.26,0-6.44-.16l-.76,0c-1.85-.08-3.68-.17-5.48-.28s-3.48-.24-5.18-.38q-6-.49-11.71-1.26L50,110.24q-4.08-.61-7.92-1.37l-.09,0c-3.68-.71-7.17-1.52-10.47-2.4-1.08-.29-2.13-.59-3.16-.9-1.35-.4-2.68-.81-3.95-1.24-.38-.12-.74-.26-1.12-.39s-.73-.24-1.08-.37l-.42-.16c-1.29-.47-2.53-1-3.72-1.45l-.46-.21c-1.15-.49-2.26-1-3.31-1.51-.86-.42-1.67-.85-2.46-1.29-.47-.26-.93-.52-1.37-.79C9.7,97.67,9,97.2,8.26,96.71A2.53,2.53,0,0,1,8,96.53l-.29-.21c-.8-.57-1.56-1.16-2.24-1.75h0l.57.49,4.7,4.09c11.49,10,41.09,17.11,75.78,17.11H386.15c34.7,0,64.3-7.11,75.78-17.1l2.37-2.07,2.9-2.52Z"/><path class="cls-3" d="M386.15,30.34c44.67,0,80.89,11.79,80.89,26.33S430.82,83,386.15,83H86.51C41.86,83,5.62,71.22,5.63,56.67S41.86,30.34,86.51,30.34Z"/><path class="cls-4" d="M472.48,63.66c0-.22.07-.45.1-.67s.05-.26.06-.4,0-.46,0-.69a9.51,9.51,0,0,0-.08-1.19l-.06-.37c0-.18,0-.36-.09-.54s-.05-.15-.07-.22c-.07-.27-.15-.53-.24-.79s-.12-.37-.19-.55-.24-.55-.38-.82-.11-.27-.18-.4l-.06-.09a13.16,13.16,0,0,0-.72-1.17s-.06-.1-.1-.16c-.31-.43-.65-.87-1-1.3l-.05-.06c-.2-.24-.43-.47-.65-.7l-.36-.38c-.38-.38-.78-.76-1.21-1.13l-5.27-4.58h0c.4.34.78.7,1.14,1,.11.12.21.24.32.35s.46.48.67.72c.34.4.66.81.95,1.22,0,0,.05.09.09.14.24.36.47.73.67,1.09.09.15.15.31.23.46s.25.51.35.77.12.34.18.51.16.49.22.74.11.47.15.71l.06.35a8.29,8.29,0,0,1,.08,1.11,8.76,8.76,0,0,1-.08,1c0,.21-.06.42-.1.63s-.1.46-.16.69-.11.41-.18.62-.17.45-.27.68-.18.42-.28.63-.24.44-.37.66-.24.42-.38.62l-.44.63c-.17.22-.33.44-.51.66s-.35.41-.54.61-.39.44-.61.65l-.59.57c-.26.25-.53.49-.82.73s-.43.37-.66.55-.61.47-.93.71l-.71.51c-.42.29-.87.58-1.33.87-.21.13-.4.27-.62.4-.68.41-1.39.82-2.14,1.22l0,0c-.82.44-1.69.87-2.59,1.29l-.79.36q-1.08.5-2.22,1l-.85.36-.84.32-1.53.58-.94.33q-.78.28-1.59.54l-.95.32-1.79.55-.85.26-.71.2c-1.11.32-2.25.63-3.41.93l-1,.25c-1.36.33-2.73.66-4.15,1l-.68.14c-1.25.27-2.52.52-3.82.76l-1.09.21c-1.49.27-3,.53-4.56.77l-1.06.16L417,81l-1.47.19-2.63.32-1.6.17c-.88.1-1.78.19-2.69.27l-1.56.14-3.06.25-1.17.08q-3.88.27-7.91.41h-.3q-4.17.15-8.46.15H86.51c-2,0-4,0-5.94-.08l-1.25,0c-1.91-.06-3.8-.13-5.67-.23l-1,0c-1.73-.1-3.44-.21-5.13-.35l-.86-.06q-2.31-.19-4.56-.42l-1-.11c-1.18-.13-2.35-.26-3.5-.41l-1.47-.18-2.59-.36-1.45-.22c-.93-.14-1.85-.29-2.77-.45l-1.13-.18-2.86-.53-.74-.14c-1.17-.23-2.33-.48-3.47-.73l-1.12-.26-2.15-.5-1.27-.32-1.88-.5-1.35-.38-1.63-.46-1.31-.41-1.53-.49c-.44-.14-.86-.29-1.29-.44l-1.4-.49L25,73.77c-.44-.17-.89-.34-1.32-.52s-.78-.32-1.16-.48l-1.24-.53-1.1-.5L19,71.19l-1-.51-1.08-.57L16,69.57,15,69l-.86-.54-.93-.63c-.27-.18-.53-.37-.78-.56s-.57-.42-.84-.64l-.68-.56c-.27-.23-.53-.47-.78-.7l-.59-.57-.67-.71-.5-.57c-.22-.27-.42-.55-.62-.82s-.26-.36-.37-.53-.37-.61-.53-.92c-.08-.15-.18-.3-.25-.46A10.56,10.56,0,0,1,6,59.31c0-.1,0-.21-.07-.31a8,8,0,0,1-.24-1.18,8.77,8.77,0,0,1-.09-1.15,8.66,8.66,0,0,1,.09-1.25c0-.14.06-.28.09-.42A8,8,0,0,1,6,54.18a10.82,10.82,0,0,1,.38-1.09h0c.15-.36.34-.72.53-1.08l.21-.35c.15-.25.3-.49.46-.73l.29-.4c.15-.2.3-.4.46-.59s.49-.58.76-.87c.12-.13.23-.26.36-.39.4-.41.83-.82,1.29-1.22L5.46,52c-.49.43-1,.87-1.38,1.31-.14.14-.26.28-.39.42-.28.31-.56.62-.81.93l-.19.21c-.1.14-.19.28-.3.42s-.21.28-.31.43-.33.51-.49.77l-.22.38a11.72,11.72,0,0,0-1,2.24s0,.06,0,.09c-.08.3-.14.59-.2.89s-.07.29-.09.44A10,10,0,0,0,0,61.9,9.24,9.24,0,0,0,.06,63c0,.09,0,.19,0,.28a2.34,2.34,0,0,1,0,.26,10.82,10.82,0,0,0,.3,1.25.88.88,0,0,0,0,.15A11.33,11.33,0,0,0,1,66.06c0,.07.05.13.08.19l.05.12c.07.14.17.27.24.41.17.33.35.65.56,1s.27.37.41.56.42.59.66.88c.06.07.1.15.17.22s.24.26.36.39.47.51.72.76.41.41.63.61.54.5.83.75c.12.09.22.2.33.29l.4.31.9.69c.27.2.54.4.83.59s.65.45,1,.67l.51.34c.13.08.28.16.41.25l1.06.63,1,.57,1.14.61c.23.11.44.23.67.35l.43.2,1.23.59,1.18.54,1.31.56.81.35.44.17,1.41.55,1.32.49,1.49.52,1,.34.41.14,1.63.52,1.41.43,1.74.5,1.12.33.33.08c.65.18,1.33.35,2,.52.46.12.9.24,1.37.35.75.19,1.52.36,2.29.54l1.09.25.12,0c1.21.27,2.45.53,3.71.77l.78.15c1,.19,2,.39,3.06.57l.26,0,1,.15c1,.17,2,.33,3,.48l1.55.23,2.76.38.87.12.71.08c1.23.16,2.47.3,3.73.43.36,0,.72.09,1.08.12q2.4.26,4.86.45l.3,0,.64,0c1.8.14,3.63.27,5.48.37l1,.06q3,.15,6.08.24l.57,0h.76c2.1,0,4.21.09,6.35.09H386.15c1.52,0,3,0,4.53,0l1.51,0,3-.07,1.76-.08,2.64-.11,1.85-.11c.83-.05,1.66-.09,2.48-.15h.28l1.07-.09c1.1-.08,2.2-.16,3.28-.26l1.67-.15,2.87-.29,1.71-.19c.94-.1,1.88-.22,2.8-.33l1.59-.21,3.07-.44,1-.14.18,0c1.66-.25,3.28-.53,4.88-.82l1.17-.22c1.38-.26,2.74-.53,4.07-.82l.74-.15c1.51-.33,3-.68,4.43-1l1-.27c1.24-.32,2.45-.64,3.64-1l.51-.14.25-.08.91-.27,1.91-.6,1-.33,1.7-.58,1-.36,1.63-.61.91-.36.37-.14.53-.23c.82-.34,1.61-.68,2.38-1l.86-.39c.95-.45,1.88-.91,2.76-1.38l0,0h0c.8-.43,1.56-.86,2.29-1.31l.67-.42c.48-.31,1-.62,1.41-.93l.31-.21.46-.34c.34-.25.67-.51,1-.76L467,72q.45-.37.87-.78l.38-.33.26-.27.65-.7c.2-.22.39-.43.57-.65l.55-.71c.1-.14.22-.27.31-.41l.16-.26c.15-.22.28-.45.41-.67s.27-.47.39-.71.21-.45.31-.67.13-.29.19-.43.05-.2.09-.3.14-.44.2-.66S472.43,63.91,472.48,63.66Z"/><path class="cls-5" d="M472.08,87.92c.06-.17.13-.34.18-.51s.15-.61.21-.91.07-.29.09-.44a10.24,10.24,0,0,0,.1-1.36V61.9a10.52,10.52,0,0,1-.1,1.37c0,.14-.06.29-.09.44q-.09.45-.21.9c-.05.18-.12.35-.18.52s-.2.55-.32.82-.16.35-.25.53-.34.65-.54,1a1.62,1.62,0,0,1-.1.18c-.25.4-.54.8-.84,1.19l-.21.26c-.32.4-.66.79-1,1.18l-.09.09c-.35.37-.74.73-1.14,1.09l-.26.24c-.42.37-.87.74-1.34,1.11l-.28.21c-.31.24-.64.47-1,.7l-1.38.93-.75.47c-.57.35-1.16.69-1.77,1l-.55.31c-.81.44-1.65.86-2.53,1.28l-.68.32c-.68.31-1.37.62-2.08.92-.5.22-1,.43-1.54.64l-.7.29c-.81.31-1.64.63-2.49.93l-.36.13c-.75.26-1.5.52-2.27.77l-.9.29-1.88.58-1,.3-2,.57-.91.25c-1,.25-2,.51-3,.75h0c-1,.24-2,.47-3,.7-1.42.32-2.88.62-4.36.91l-1.05.2-3.67.65-1.28.21c-1.57.26-3.16.5-4.78.72l-.32,0c-1.53.21-3.08.4-4.64.58l-1.43.16c-1.38.15-2.78.28-4.19.41l-1,.1c-1.72.14-3.46.27-5.21.38l-1.3.08c-1.41.08-2.83.15-4.27.21l-1.45.06c-1.82.07-3.64.12-5.49.15-1.42,0-2.85,0-4.29,0H86.51c-1.76,0-3.5,0-5.23-.06L79.7,90c-1.24,0-2.48-.07-3.71-.12l-1.62-.06c-1.39-.07-2.77-.14-4.14-.23l-.92,0c-1.66-.11-3.29-.24-4.91-.37L63,89c-1.05-.1-2.08-.19-3.11-.3l-1.66-.19c-1-.1-1.92-.22-2.87-.34-.54-.07-1.08-.13-1.61-.21-1-.13-2-.27-3-.42l-1.32-.19c-1.4-.22-2.79-.45-4.16-.69l-.29,0c-1.32-.24-2.63-.49-3.91-.75l-1.29-.27c-1-.2-1.92-.41-2.85-.62l-1.32-.31c-1-.24-2-.49-3-.75l-.84-.22c-1.24-.33-2.46-.67-3.64-1l-1.29-.4c-.59-.18-1.18-.36-1.75-.55l-1.31-.44L22.1,80.7l-1.26-.47-1.51-.59c-.41-.16-.8-.33-1.2-.5s-.95-.39-1.41-.6L15.58,78l-1.3-.62-1.07-.54L12,76.21c-.34-.18-.67-.37-1-.56L9.91,75c-.31-.19-.61-.38-.9-.58s-.68-.45-1-.68l-.82-.59c-.31-.23-.61-.47-.9-.71s-.5-.4-.73-.6-.54-.48-.8-.73-.44-.4-.64-.61-.46-.5-.69-.75-.37-.41-.54-.62-.39-.51-.58-.78l-.44-.61c-.17-.27-.32-.55-.47-.82s-.23-.4-.33-.6-.25-.58-.36-.87-.16-.39-.22-.58a8.74,8.74,0,0,1-.24-1c0-.16-.09-.33-.12-.49A9.26,9.26,0,0,1,0,61.9V84.7a9.36,9.36,0,0,0,.12,1.49c0,.16.08.32.12.48a8.9,8.9,0,0,0,.24,1c.06.19.15.38.22.57s.22.58.36.87.22.41.33.61.3.54.47.81.29.42.44.62.37.52.58.78.36.41.54.62.45.5.69.75l.64.61c.26.24.52.49.8.73s.48.4.73.6.59.47.9.71l.82.59,1,.68.9.58,1.11.66L12,99c.39.22.79.43,1.2.64s.71.37,1.07.54l1.31.63,1.13.52,1.41.6,1.2.5,1.51.58,1.26.48,1.63.56,1.29.45,1.77.55,1.06.34.22.06c1.18.35,2.4.7,3.65,1l.82.21,3,.76,1.3.3c.94.22,1.89.42,2.86.63l1.28.26c1.3.27,2.61.52,3.95.76l.23,0h0c1.37.24,2.76.47,4.16.68l1.31.2c1,.14,2,.29,3,.42l1.59.21,2.88.34,1.66.18,3.11.31,1.09.1.36,0c1.62.14,3.26.27,4.91.38l.9,0c1.37.08,2.76.16,4.16.22l1.62.07c1.23,0,2.47.09,3.71.12l1.58,0c1.73,0,3.47,0,5.23,0H386.15c1.4,0,2.79,0,4.18,0h.11q2.78,0,5.49-.15l1.44-.06c1.44-.06,2.87-.13,4.29-.22l1.28-.07q2.64-.17,5.22-.39l1-.09c1.42-.13,2.82-.27,4.21-.42l1.41-.15c1.57-.18,3.13-.37,4.67-.58l.3,0c1.62-.22,3.21-.47,4.78-.72l1.27-.21q1.88-.32,3.69-.66l1-.19c1.48-.29,2.94-.6,4.37-.92l.26,0,2.74-.64.07,0c1-.24,2-.49,2.93-.75l.92-.25,2-.56,1-.3,1.88-.58.9-.29c.77-.25,1.51-.51,2.25-.77l.38-.13c.85-.31,1.68-.62,2.49-.94l.7-.28,1.18-.48.36-.16c.71-.3,1.4-.62,2.08-.93l.68-.31c.88-.42,1.72-.85,2.53-1.28l.55-.31c.61-.34,1.2-.69,1.77-1l.75-.48c.47-.3.93-.61,1.38-.92.13-.1.28-.18.4-.28l.57-.42.28-.22c.47-.36.92-.73,1.34-1.11l.26-.23c.4-.36.79-.73,1.15-1.1l.08-.09c.37-.38.71-.78,1-1.18l.21-.26c.3-.39.59-.79.84-1.19a1,1,0,0,0,.1-.17q.19-.3.36-.6c.07-.12.12-.25.18-.38s.17-.35.25-.52S472,88.2,472.08,87.92Z"/><path class="cls-1" d="M97.28,46.78l-17-42.33a6.07,6.07,0,0,0-.42-.89.83.83,0,0,1-.07-.13,5.6,5.6,0,0,0-.54-.74l-.11-.13L79,2.4c-.12-.12-.25-.23-.38-.34l-.24-.22a7.41,7.41,0,0,0-.85-.57A8.81,8.81,0,0,0,73.12.16a9.67,9.67,0,0,0-4.56,1.11c-.17.09-.34.18-.5.28s-.19.14-.28.2L67.41,2c-.18.14-.35.29-.51.44a2.8,2.8,0,0,0-.31.28,6.33,6.33,0,0,0-.49.56c-.08.1-.16.18-.23.28a8.61,8.61,0,0,0-.62.95L41.88,46.16a6.62,6.62,0,0,0-.94,3.22v8.45a6.59,6.59,0,0,1,.94-3.22L65.25,13a7.76,7.76,0,0,1,.62-1,3.11,3.11,0,0,1,.23-.28,5.17,5.17,0,0,1,.49-.56c.09-.1.2-.19.31-.29a5.27,5.27,0,0,1,.51-.43,3.09,3.09,0,0,1,.37-.26,8.6,8.6,0,0,1,.78-.49A9.67,9.67,0,0,1,73.12,8.6a8.81,8.81,0,0,1,4.41,1.11,7.47,7.47,0,0,1,.85.58l.24.22a6,6,0,0,1,.52.49l.11.13a5.7,5.7,0,0,1,.54.75.75.75,0,0,0,.07.12,6.6,6.6,0,0,1,.42.89l17,42.33a5.75,5.75,0,0,1,.48,2.23V49A5.7,5.7,0,0,0,97.28,46.78Z"/><rect class="cls-1" x="63.13" y="32.97" width="15.34" height="8.44"/><path class="cls-1" d="M132.22,44.7q-.91,0-1.77-.06c-.19,0-.36,0-.55-.06-.37,0-.75-.07-1.1-.12s-.42-.08-.63-.12-.62-.11-.91-.18-.41-.12-.62-.18-.55-.15-.81-.24-.39-.16-.58-.24-.49-.19-.73-.3l-.54-.3c-.22-.12-.44-.24-.65-.37l-.5-.35-.58-.43c-.16-.13-.3-.28-.45-.42s-.41-.37-.6-.57a13.57,13.57,0,0,1-3.11-6.33,24,24,0,0,1-.51-5.14h0v8.44q0,7.52,3.62,11.47l.17.18c.13.14.29.26.43.4s.29.28.45.41l.58.43.5.36c.21.13.43.24.65.36s.35.21.54.3.48.2.73.3.38.17.58.24.54.17.81.24.41.13.62.18a9.15,9.15,0,0,0,.91.18c.21,0,.41.09.63.12s.73.09,1.1.13c.19,0,.36,0,.55.06q.86.06,1.77.06a27.31,27.31,0,0,0,3.43-.23,32.75,32.75,0,0,0,3.65-.69l.79-9.89V33.89l-.79,9.9A30.09,30.09,0,0,1,132.22,44.7Z"/><path class="cls-1" d="M153.26,27.57a3.68,3.68,0,0,0-.15-.57c0-.1-.1-.2-.14-.3a3.81,3.81,0,0,0-.23-.45,2.92,2.92,0,0,0-.21-.28,3.17,3.17,0,0,0-.28-.36l0,0a5.23,5.23,0,0,0-3.86-1.34H135.21a8.27,8.27,0,0,0-1.14.08l-.33.06a6.76,6.76,0,0,0-.71.16l-.35.12a5.56,5.56,0,0,0-.61.25l-.31.16-.15.08a5.16,5.16,0,0,0-.61.43,4.38,4.38,0,0,0-1.39,2.06,5.32,5.32,0,0,0-.22,1.59h0v8.44A4.54,4.54,0,0,1,131,34a6.3,6.3,0,0,1,.76-.51l.31-.15a4.14,4.14,0,0,1,.61-.26L133,33a4.93,4.93,0,0,1,.71-.16l.33-.06a8.27,8.27,0,0,1,1.14-.08h13.14A5.27,5.27,0,0,1,152.21,34c.12.13.21.27.32.4s.15.18.21.28a3.81,3.81,0,0,1,.23.45c0,.11.1.2.14.31a3.4,3.4,0,0,1,.15.57,2.29,2.29,0,0,1,.07.28,5.83,5.83,0,0,1,.08,1V28.81a5.8,5.8,0,0,0-.08-.95C153.32,27.76,153.28,27.67,153.26,27.57Z"/><path class="cls-1" d="M153.12,6.21a7,7,0,0,0-.47-.64l-.16-.18-.21-.25L152.15,5a6.3,6.3,0,0,0-.55-.48,2.75,2.75,0,0,0-.26-.22,9.65,9.65,0,0,0-.94-.64,33,33,0,0,0-7.24-2.57A42.52,42.52,0,0,0,133.09,0a33.51,33.51,0,0,0-15.94,3.61c-.52.27-1,.56-1.52.87l-.07,0-.43.28c-.35.23-.71.46-1,.7l-.53.4c-.29.22-.58.44-.86.67l-.54.46c-.26.23-.52.46-.77.7s-.35.33-.51.5-.49.49-.72.74-.32.35-.47.53-.46.54-.68.82-.29.35-.42.53-.46.64-.68,1c-.11.16-.23.32-.33.48-.32.49-.63,1-.92,1.52A28.88,28.88,0,0,0,103.18,25a36.93,36.93,0,0,0-.23,4.27h0v8.44a30.94,30.94,0,0,1,3.7-15.41c.29-.52.6-1,.92-1.52.1-.16.22-.31.33-.47.22-.33.44-.65.68-1s.28-.36.42-.53.44-.56.68-.83l.47-.52q.34-.39.72-.75c.16-.17.34-.34.51-.5s.51-.47.77-.7l.54-.46c.28-.23.57-.45.86-.67s.35-.27.53-.39c.34-.25.7-.48,1-.71l.43-.28c.52-.31,1-.62,1.59-.91a33.62,33.62,0,0,1,15.94-3.61,42,42,0,0,1,10.07,1.12,33.06,33.06,0,0,1,7.24,2.56c.34.21.65.42.94.64l.26.22c.19.16.38.32.55.49l.34.36a1.46,1.46,0,0,1,.16.19,7,7,0,0,1,.47.64,5.74,5.74,0,0,1,.9,3.07V9.28A5.76,5.76,0,0,0,153.12,6.21Z"/><path class="cls-6" d="M97.28,55.22a5.75,5.75,0,0,1,.48,2.23,5.5,5.5,0,0,1-2.21,4.4,7.63,7.63,0,0,1-5,1.8,6,6,0,0,1-3.31-1,5.54,5.54,0,0,1-2.21-2.87L82.25,52H57.62l-4,7.74a6.72,6.72,0,0,1-6.06,3.76A7.15,7.15,0,0,1,43,61.89a5,5,0,0,1-2-4.06,6.59,6.59,0,0,1,.94-3.22L65.25,13a7.88,7.88,0,0,1,3.31-3.26A9.67,9.67,0,0,1,73.12,8.6a8.81,8.81,0,0,1,4.41,1.11,6,6,0,0,1,2.75,3.18ZM63.13,41.41H78.47L72.18,24l-9.05,17.4"/><path class="cls-1" d="M202.81,39c-.2-.38-.4-.73-.6-1.07-.06-.11-.13-.21-.2-.32s-.28-.44-.42-.64l-.24-.32c-.13-.18-.27-.35-.41-.51a3.47,3.47,0,0,0-.25-.29l-.15-.17-.44-.44a8.52,8.52,0,0,0-3.59-1.84v8.45a7.69,7.69,0,0,1,4.18,2.44l.25.29c.14.16.28.33.41.51l.24.33c.14.2.28.42.42.64a3.28,3.28,0,0,1,.2.31q.3.51.6,1.08l3.54,7.28a6.51,6.51,0,0,1,.71,2.84V49.15a6.47,6.47,0,0,0-.71-2.83Z"/><path class="cls-1" d="M197.06,17.41a5.92,5.92,0,0,1-2,4.83,4.85,4.85,0,0,1-.63.46,1,1,0,0,0-.17.1,8,8,0,0,1-.93.46h0a7.15,7.15,0,0,1-1.08.33l-.22.06c-.37.08-.77.14-1.18.19l-.24,0c-.45,0-.9.06-1.38.06H177.47v8.45H189.2c.48,0,.93,0,1.38-.07l.24,0a10.39,10.39,0,0,0,1.18-.19l.22-.05a8.52,8.52,0,0,0,1.08-.33h0a6.71,6.71,0,0,0,.93-.46l.1,0,.07-.05a4.85,4.85,0,0,0,.63-.46,5.91,5.91,0,0,0,2-4.83Z"/><path class="cls-1" d="M208.06,16.14c.17.24.32.48.47.72s.21.37.31.56.26.51.38.77.17.39.25.59.21.55.3.83.14.4.2.6.15.61.22.92.09.4.13.6.1.71.14,1.07c0,.18,0,.35.07.53.05.55.07,1.1.07,1.68V16.56c0-.57,0-1.13-.07-1.68,0-.18-.05-.35-.07-.52,0-.36-.08-.72-.14-1.07s-.09-.4-.13-.6-.14-.62-.22-.92-.13-.41-.2-.61-.19-.56-.3-.83-.16-.39-.25-.58-.25-.52-.38-.78-.2-.37-.31-.55-.3-.49-.47-.73-.23-.34-.36-.51-.37-.47-.56-.69a6,6,0,0,0-.41-.47l-.14-.16a11.57,11.57,0,0,0-.87-.84Q200.85.7,192.11.69H171.89a9.25,9.25,0,0,0-1.08.06l-.24,0c-.33,0-.66.1-1,.17l-.12,0a6.8,6.8,0,0,0-.8.26l-.17.06a7.16,7.16,0,0,0-.78.4s0,0,0,0l-.08.05a5.76,5.76,0,0,0-.8.6,7.25,7.25,0,0,0-2.16,4.83l-3.3,41c0,.32-.05.63-.05.93V57.6c0-.3,0-.61.05-.92l3.3-41a7.27,7.27,0,0,1,2.16-4.83,5.68,5.68,0,0,1,.8-.59l.13-.09a5.68,5.68,0,0,1,.78-.39l.17-.07a6.8,6.8,0,0,1,.8-.26l.12,0a7.55,7.55,0,0,1,1-.17l.24,0c.34,0,.7,0,1.08,0h20.22q8.73,0,13.61,4.33c.36.32.69.65,1,1,.15.16.28.32.41.47l.56.69A6,6,0,0,1,208.06,16.14Z"/><path class="cls-1" d="M216.92,57.66V49.22c0-.32,0-.65.05-1v8.45C216.94,57,216.92,57.35,216.92,57.66Z"/><g class="cls-7"><g class="cls-8"><path class="cls-1" d="M216.92,57.66V49.22c0-.32,0-.65.05-1v8.45c0,.34-.05.67-.05,1"/></g></g><path class="cls-1" d="M257.57,48a4.93,4.93,0,0,0-.21-.8l-.05-.14a5.66,5.66,0,0,0-.34-.7l-.08-.11a3.68,3.68,0,0,0-.49-.63l0,0a3.34,3.34,0,0,0-.33-.32,7.18,7.18,0,0,0-4.77-1.38H231.37V52.3h19.91a7.13,7.13,0,0,1,4.77,1.39c.12.1.24.22.35.33a3.75,3.75,0,0,1,.49.64,1,1,0,0,1,.08.11,5,5,0,0,1,.34.7s0,.09.05.13a5.22,5.22,0,0,1,.21.8s0,.08,0,.12a5.46,5.46,0,0,1,.08.93V49a5.64,5.64,0,0,0-.08-.93S257.57,48,257.57,48Z"/><path class="cls-1" d="M257.73,25.82a4.45,4.45,0,0,0-.2-.76.78.78,0,0,0,0-.14,3.89,3.89,0,0,0-.33-.68.35.35,0,0,0,0-.08,3.66,3.66,0,0,0-.46-.58s0,0,0,0v0l-.4-.36a7.42,7.42,0,0,0-4.76-1.3H233.18V30.3h18.26a7.42,7.42,0,0,1,4.76,1.31,3.42,3.42,0,0,1,.4.36l0,.05a3.74,3.74,0,0,1,.46.59.22.22,0,0,1,0,.08,4.17,4.17,0,0,1,.33.67,1.21,1.21,0,0,1,0,.14,4.71,4.71,0,0,1,.2.76c0,.05,0,.09,0,.14a6.18,6.18,0,0,1,.07.89V26.84a6.42,6.42,0,0,0-.07-.89S257.74,25.86,257.73,25.82Z"/><path class="cls-1" d="M260.46,11.46l.07.09a4.27,4.27,0,0,1,.33.68s0,.09.05.13a6.53,6.53,0,0,1,.2.76s0,.08,0,.12a6.15,6.15,0,0,1,.07.88V5.68a6.15,6.15,0,0,0-.07-.88s0-.08,0-.12a5.62,5.62,0,0,0-.2-.76s0-.09-.05-.13a3.89,3.89,0,0,0-.33-.68L260.46,3A4.11,4.11,0,0,0,260,2.4h0L259.59,2A7.33,7.33,0,0,0,254.82.69h-27.3c-.37,0-.72,0-1.06.06l-.23,0a8.89,8.89,0,0,0-.95.18l-.13,0a8.13,8.13,0,0,0-.79.26l-.17.07a5.67,5.67,0,0,0-.78.39l-.06,0s0,.05-.08.06a6.49,6.49,0,0,0-.79.59,7.15,7.15,0,0,0-2.2,4.83l-3.31,41v8.45l3.31-41a7.17,7.17,0,0,1,2.2-4.83,5.53,5.53,0,0,1,.79-.58l.14-.09a5.7,5.7,0,0,1,.78-.4l.17-.06a6.09,6.09,0,0,1,.79-.26l.13,0a8.92,8.92,0,0,1,.95-.17l.23,0c.34,0,.69,0,1.06,0h27.3a7.27,7.27,0,0,1,4.77,1.34l.38.35h0A4.68,4.68,0,0,1,260.46,11.46Z"/><path class="cls-1" d="M293.46,44.7q-.91,0-1.77-.06c-.19,0-.37,0-.55-.06-.37,0-.75-.07-1.1-.12s-.42-.08-.62-.12-.63-.11-.92-.18-.41-.12-.62-.18-.55-.15-.81-.24-.39-.16-.58-.24-.49-.19-.72-.3l-.55-.3c-.22-.12-.44-.24-.65-.37l-.5-.35c-.19-.14-.39-.28-.57-.43s-.31-.28-.46-.42-.41-.37-.59-.57q-3.63-3.94-3.63-11.47v8.44q0,7.52,3.63,11.47l.16.18.43.4c.15.14.3.28.46.41s.38.29.57.43.33.25.5.36.43.24.65.36.36.21.55.3.47.2.72.3.38.17.58.24.54.17.81.24.4.13.62.18.61.13.92.19l.62.11c.35.06.73.09,1.1.13l.55.06q.85.06,1.77.06a30.28,30.28,0,0,0,7.09-.92l.78-9.89V33.89l-.78,9.9A30.24,30.24,0,0,1,293.46,44.7Z"/><path class="cls-1" d="M314.5,27.56a3.68,3.68,0,0,0-.15-.57c0-.1-.1-.2-.14-.3s-.14-.31-.22-.45-.15-.18-.22-.28-.17-.24-.27-.35l-.05,0a5.24,5.24,0,0,0-3.85-1.34H296.45a8.38,8.38,0,0,0-1.14.08l-.33.06c-.25,0-.48.1-.71.16l-.35.12a6.5,6.5,0,0,0-.61.25l-.3.16-.16.08a6.14,6.14,0,0,0-.61.43,4.29,4.29,0,0,0-1.38,2.06,5,5,0,0,0-.23,1.59h0v8.44A4.54,4.54,0,0,1,292.24,34a5.71,5.71,0,0,1,.77-.51l.3-.15a4.66,4.66,0,0,1,.61-.26l.35-.11a5.25,5.25,0,0,1,.71-.16l.33-.06a8.38,8.38,0,0,1,1.14-.08H309.6A5.28,5.28,0,0,1,313.45,34a4,4,0,0,1,.32.4c.07.09.15.18.22.28a4.71,4.71,0,0,1,.22.45c0,.1.1.19.14.3a3.4,3.4,0,0,1,.15.57,2.29,2.29,0,0,1,.07.28,5.67,5.67,0,0,1,.08.94h0V28.79a5.8,5.8,0,0,0-.08-.95A2.86,2.86,0,0,0,314.5,27.56Z"/><path class="cls-1" d="M314.36,6.21a7,7,0,0,0-.47-.64l-.16-.18c-.07-.08-.13-.17-.21-.25a1.42,1.42,0,0,1-.13-.12,6.52,6.52,0,0,0-.55-.48,2.75,2.75,0,0,0-.26-.22,9.65,9.65,0,0,0-.94-.64,33,33,0,0,0-7.24-2.57A42.55,42.55,0,0,0,294.32,0a33.49,33.49,0,0,0-15.93,3.61q-.78.42-1.53.87l-.06,0-.42.27c-.36.23-.72.47-1.06.72-.18.12-.35.26-.53.39s-.58.44-.86.67-.36.31-.54.46-.52.46-.77.7-.35.33-.52.5-.48.49-.71.75l-.48.52c-.23.27-.45.55-.68.83l-.41.52c-.24.32-.46.64-.69,1-.1.15-.22.31-.32.47-.32.49-.63,1-.92,1.52A29.06,29.06,0,0,0,264.42,25a39.3,39.3,0,0,0-.23,4.27h0v8.44a30.94,30.94,0,0,1,3.7-15.41c.29-.52.6-1,.92-1.52.1-.16.22-.31.32-.47.23-.32.45-.65.69-1s.27-.35.41-.53.45-.56.68-.82l.48-.53.71-.75.52-.5c.25-.24.51-.47.77-.7l.54-.45.86-.68.53-.39c.34-.25.7-.48,1.06-.71l.42-.27c.51-.32,1-.63,1.59-.92a33.61,33.61,0,0,1,15.93-3.61A42,42,0,0,1,304.4,9.56a33.06,33.06,0,0,1,7.24,2.56c.34.21.65.42.94.64l.26.22a6.6,6.6,0,0,1,.55.49l.34.36c.06.06.11.13.16.19a7,7,0,0,1,.47.64,5.74,5.74,0,0,1,.9,3.07V9.28A5.76,5.76,0,0,0,314.36,6.21Z"/><path class="cls-1" d="M375.46,46.78l-17-42.33a6.07,6.07,0,0,0-.42-.89.83.83,0,0,1-.07-.13,5.6,5.6,0,0,0-.54-.74l-.11-.13-.14-.16c-.12-.12-.25-.23-.38-.34s-.15-.15-.24-.22a6.62,6.62,0,0,0-.85-.57A8.81,8.81,0,0,0,351.3.16a9.72,9.72,0,0,0-4.56,1.11c-.17.09-.34.18-.5.28l-.29.2-.36.26c-.18.14-.35.29-.52.44l-.31.28c-.17.18-.33.37-.49.56s-.15.18-.23.28a10.26,10.26,0,0,0-.61.95L320.06,46.16a6.62,6.62,0,0,0-.94,3.22v8.45a6.59,6.59,0,0,1,.94-3.22L343.43,13a9.07,9.07,0,0,1,.61-1l.23-.28c.16-.19.32-.39.49-.56l.31-.29c.17-.15.34-.3.52-.44l.36-.25c.26-.17.51-.34.79-.49A9.72,9.72,0,0,1,351.3,8.6a8.81,8.81,0,0,1,4.41,1.11,6.67,6.67,0,0,1,.85.58l.24.21a6.14,6.14,0,0,1,.52.5l.11.13a5.7,5.7,0,0,1,.54.75A.75.75,0,0,0,358,12a6.6,6.6,0,0,1,.42.89l17,42.33a5.73,5.73,0,0,1,.47,2.23V49A5.68,5.68,0,0,0,375.46,46.78Z"/><rect class="cls-1" x="341.3" y="32.97" width="15.35" height="8.44"/><path class="cls-1" d="M382.41,57.6V49.15c0-.29,0-.6,0-.92v8.45C382.43,57,382.41,57.3,382.41,57.6Z"/><g class="cls-9"><g class="cls-8"><path class="cls-1" d="M382.41,57.6V49.15c0-.29,0-.6,0-.92v8.45c0,.31,0,.62,0,.92"/></g></g><path class="cls-6" d="M375.46,55.22a5.73,5.73,0,0,1,.47,2.23,5.49,5.49,0,0,1-2.2,4.4,7.63,7.63,0,0,1-5,1.8,6,6,0,0,1-3.3-1,5.59,5.59,0,0,1-2.21-2.87L360.43,52H335.8l-4,7.74a6.69,6.69,0,0,1-6.06,3.76,7.17,7.17,0,0,1-4.6-1.61,5,5,0,0,1-2-4.06,6.59,6.59,0,0,1,.94-3.22L343.43,13a7.88,7.88,0,0,1,3.31-3.26A9.72,9.72,0,0,1,351.3,8.6a8.81,8.81,0,0,1,4.41,1.11,6,6,0,0,1,2.75,3.18ZM341.3,41.41h15.36L350.36,24l-9.06,17.4"/><path class="cls-1" d="M423.93,39c-.19-.38-.39-.73-.59-1.07l-.2-.31c-.14-.22-.28-.44-.42-.64l-.24-.33c-.13-.18-.27-.35-.41-.51a3.33,3.33,0,0,0-.25-.28c-.05-.06-.09-.12-.14-.17s-.31-.31-.46-.45a8.48,8.48,0,0,0-3.58-1.84v8.45a8.36,8.36,0,0,1,3.58,1.84c.2.18.4.39.6.61s.17.19.25.28.28.34.41.52l.24.32c.14.2.28.42.42.64l.2.31c.2.34.4.7.59,1.08l3.54,7.28a6.37,6.37,0,0,1,.71,2.84V49.15a6.33,6.33,0,0,0-.71-2.83Z"/><path class="cls-1" d="M418.19,17.41a5.69,5.69,0,0,1-2.64,5.29l-.17.09a6.71,6.71,0,0,1-.93.46h0a7.28,7.28,0,0,1-1.09.33l-.21.06c-.38.08-.77.14-1.19.19l-.24,0q-.66.06-1.38.06H398.6v8.45h11.72c.48,0,.94,0,1.38-.07l.24,0a10.57,10.57,0,0,0,1.19-.19l.21-.05a8.68,8.68,0,0,0,1.09-.33h0a8,8,0,0,0,.93-.46l.1,0a.18.18,0,0,1,.07-.05,4.85,4.85,0,0,0,.63-.46,5.94,5.94,0,0,0,2-4.83Z"/><path class="cls-1" d="M429.19,16.14c.16.24.32.48.47.72l.31.56c.13.25.26.51.37.77s.18.39.26.59.2.55.3.83.13.4.19.61.15.6.22.91.09.4.13.6.1.71.15,1.07c0,.18.05.35.06.53.05.55.07,1.1.07,1.68V16.56c0-.57,0-1.13-.07-1.67,0-.18,0-.36-.06-.53,0-.36-.09-.72-.15-1.07s-.09-.4-.13-.6-.14-.62-.22-.92-.13-.4-.19-.6-.19-.56-.3-.84-.17-.39-.26-.58S430.1,9.23,430,9l-.31-.56c-.15-.25-.31-.49-.47-.72l-.36-.52c-.18-.24-.37-.46-.56-.69L427.86,6l-.13-.15c-.28-.29-.58-.57-.88-.85C423.6,2.14,419.05.69,413.23.69H393a9.38,9.38,0,0,0-1.08.06l-.23,0c-.34,0-.66.1-1,.17l-.12,0a6.8,6.8,0,0,0-.8.26l-.18.06a6.21,6.21,0,0,0-.77.4l-.06,0-.07.06a5.76,5.76,0,0,0-.8.6,7.25,7.25,0,0,0-2.16,4.83l-3.31,41v8.45l3.31-41a7.27,7.27,0,0,1,2.16-4.83,6.68,6.68,0,0,1,.8-.6l.13-.08a5.05,5.05,0,0,1,.77-.39l.18-.07a6.8,6.8,0,0,1,.8-.26l.12,0a7.26,7.26,0,0,1,1-.17l.23,0c.35,0,.7,0,1.08,0h20.22c5.82,0,10.37,1.44,13.62,4.33a13.62,13.62,0,0,1,1,1l.41.46.56.69Z"/><path class="cls-6" d="M294.32,8.44A42,42,0,0,1,304.4,9.56a33.06,33.06,0,0,1,7.24,2.56,7.79,7.79,0,0,1,2.72,2.54,5.74,5.74,0,0,1,.9,3.07,5.56,5.56,0,0,1-1.57,3.91,5.09,5.09,0,0,1-3.86,1.68,6.74,6.74,0,0,1-3.46-1.07,29.52,29.52,0,0,0-5.27-2,25.85,25.85,0,0,0-6.61-.7q-7.41,0-11.53,4.88t-4.14,13.29q0,7.52,3.63,11.47t11,3.95a30.28,30.28,0,0,0,7.09-.92l.78-9.89h-5.19q-5.5,0-5.51-4.68A4.54,4.54,0,0,1,292.24,34a6.45,6.45,0,0,1,4.21-1.33H309.6A5.28,5.28,0,0,1,313.45,34a4.56,4.56,0,0,1,1.18,3.72l-1.1,13.43A23.31,23.31,0,0,1,312.47,57a6.65,6.65,0,0,1-2.36,3.18,16.06,16.06,0,0,1-4.85,2.07,52.19,52.19,0,0,1-6.8,1.19,63.76,63.76,0,0,1-7.12.42A30.82,30.82,0,0,1,276.9,60.7a22.37,22.37,0,0,1-9.41-9.12,28.23,28.23,0,0,1-3.3-13.92,30.94,30.94,0,0,1,3.7-15.41,25.31,25.31,0,0,1,10.5-10.2A33.61,33.61,0,0,1,294.32,8.44Z"/><path class="cls-6" d="M254.82,9.14a7.27,7.27,0,0,1,4.77,1.34,4.5,4.5,0,0,1,1.61,3.64q0,5.91-7.32,5.9H234.05l-.87,10.28h18.26a7.42,7.42,0,0,1,4.76,1.31,4.44,4.44,0,0,1,1.62,3.68,5.33,5.33,0,0,1-1.77,4.4q-1.77,1.43-5.48,1.42H232.32l-.95,11.19h19.91a7.13,7.13,0,0,1,4.77,1.39,4.7,4.7,0,0,1,1.61,3.76q0,5.74-7.32,5.74H223.11a6.42,6.42,0,0,1-4.84-1.68,5.84,5.84,0,0,1-1.3-4.83l3.31-41a7.17,7.17,0,0,1,2.2-4.83,7.31,7.31,0,0,1,5-1.68Z"/><path class="cls-6" d="M207.18,36.4q-3.44,4.17-10.67,5.48a8.4,8.4,0,0,1,3.59,1.84,13.08,13.08,0,0,1,2.71,3.76l3.54,7.28a6.51,6.51,0,0,1,.71,2.84,5.71,5.71,0,0,1-2.28,4.56A7.87,7.87,0,0,1,199.66,64,6.83,6.83,0,0,1,196,63a7.18,7.18,0,0,1-2.67-3L186.6,45.94a5,5,0,0,0-5-3h-5l-1,13.65a7.17,7.17,0,0,1-7.63,7,6.78,6.78,0,0,1-5.12-1.87,6.12,6.12,0,0,1-1.49-5.1l3.3-41a7.27,7.27,0,0,1,2.16-4.83,7.3,7.3,0,0,1,5.09-1.68h20.22q8.73,0,13.61,4.33A14.68,14.68,0,0,1,210.6,25Q210.6,32.21,207.18,36.4Zm-12.13-5.72a5.91,5.91,0,0,0,2-4.83,5.77,5.77,0,0,0-1.69-4.56q-1.69-1.5-5.23-1.5H178.41l-.94,12.58H189.2a8.84,8.84,0,0,0,5.85-1.69"/><path class="cls-6" d="M133.09,8.44a42,42,0,0,1,10.07,1.12,33.06,33.06,0,0,1,7.24,2.56,7.79,7.79,0,0,1,2.72,2.54,5.74,5.74,0,0,1,.9,3.07,5.61,5.61,0,0,1-1.57,3.91,5.09,5.09,0,0,1-3.86,1.68,6.74,6.74,0,0,1-3.46-1.07,28.77,28.77,0,0,0-5.28-2,25.8,25.8,0,0,0-6.61-.7q-7.4,0-11.52,4.88t-4.14,13.29q0,7.52,3.62,11.47t11,3.95a30.13,30.13,0,0,0,7.08-.92l.79-9.89H134.9c-3.68,0-5.51-1.56-5.51-4.68A4.54,4.54,0,0,1,131,34a6.43,6.43,0,0,1,4.21-1.33h13.14A5.27,5.27,0,0,1,152.21,34a4.63,4.63,0,0,1,1.18,3.72l-1.1,13.43A23.24,23.24,0,0,1,151.22,57a6.57,6.57,0,0,1-2.35,3.18A16.1,16.1,0,0,1,144,62.27a52.66,52.66,0,0,1-6.81,1.19,64,64,0,0,1-7.12.42,30.8,30.8,0,0,1-14.44-3.18,22.32,22.32,0,0,1-9.41-9.12A28.23,28.23,0,0,1,103,37.66a30.94,30.94,0,0,1,3.7-15.41,25.37,25.37,0,0,1,10.5-10.2A33.62,33.62,0,0,1,133.09,8.44Z"/><path class="cls-6" d="M428.3,36.4q-3.42,4.17-10.66,5.48a8.36,8.36,0,0,1,3.58,1.84,12.89,12.89,0,0,1,2.71,3.76l3.54,7.28a6.37,6.37,0,0,1,.71,2.84,5.68,5.68,0,0,1-2.28,4.56A7.85,7.85,0,0,1,420.78,64a6.8,6.8,0,0,1-3.61-1,7.2,7.2,0,0,1-2.68-3l-6.77-14.11a5,5,0,0,0-5-3h-5l-1,13.65a7.17,7.17,0,0,1-7.64,7A6.76,6.76,0,0,1,384,61.78a6.12,6.12,0,0,1-1.5-5.1l3.31-41a7.27,7.27,0,0,1,2.16-4.83A7.28,7.28,0,0,1,393,9.14h20.22c5.82,0,10.37,1.44,13.61,4.33A14.64,14.64,0,0,1,431.72,25C431.72,29.81,430.59,33.61,428.3,36.4Zm-12.12-5.72a5.94,5.94,0,0,0,2-4.83,5.77,5.77,0,0,0-1.69-4.56c-1.13-1-2.87-1.5-5.24-1.5H399.54l-.94,12.58h11.72a8.87,8.87,0,0,0,5.86-1.69"/></g></g></svg>